<?xml version="1.0" encoding="UTF-8"?>
<svg xmlns="http://www.w3.org/2000/svg" width="1200" height="630" viewBox="0 0 1200 630" role="img" aria-label="Brian's Landscaping — Landscaper & Tree Service in Bethlehem, PA">
  <defs>
    <linearGradient id="bg" x1="0" y1="0" x2="1" y2="1">
      <stop offset="0" stop-color="#285325"/><stop offset="1" stop-color="#1e371d"/>
    </linearGradient>
  </defs>
  <rect width="1200" height="630" fill="url(#bg)"/>
  <g transform="translate(150 540)"><g transform="translate(0 0) scale(0.9)">
    <ellipse cx="0" cy="0" rx="70" ry="46" fill="#3f8a39"/>
    <ellipse cx="-38" cy="6" rx="42" ry="34" fill="#3f8a39"/>
    <ellipse cx="40" cy="6" rx="44" ry="34" fill="#3f8a39"/>
  </g></g>
  <g transform="translate(1040 560)"><g transform="translate(0 0) scale(0.9)">
    <rect x="-13" y="-120" width="26" height="130" rx="7" fill="#6b4a2f"/>
    <circle cx="0" cy="-150" r="78" fill="#2f6b2c"/>
    <circle cx="-55" cy="-120" r="60" fill="#3f8a39"/>
    <circle cx="58" cy="-122" r="62" fill="#3f8a39"/>
    <circle cx="0" cy="-185" r="58" fill="#3f8a39"/>
  </g></g>
  <text x="80" y="250" font-family="Georgia, serif" font-size="74" fill="#ffffff" font-weight="800">Brian's Landscaping</text>
  <text x="84" y="320" font-family="Arial, sans-serif" font-size="36" fill="#bcd9b6">Landscaper &amp; Tree Service in Bethlehem, PA</text>
  <text x="84" y="386" font-family="Arial, sans-serif" font-size="28" fill="#dcebd9">Lawn care · Mulching · Tree removal · Stump grinding</text>
  <rect x="84" y="420" width="300" height="64" rx="32" fill="#ffffff"/>
  <text x="234" y="462" text-anchor="middle" font-family="Arial, sans-serif" font-size="30" fill="#234221" font-weight="800">(610) 867-7414</text>
  <text x="430" y="462" font-family="Arial, sans-serif" font-size="26" fill="#bcd9b6">★ 4.4 · 19 Google reviews</text>
</svg>