<?xml version="1.0" encoding="UTF-8"?>
<svg xmlns="http://www.w3.org/2000/svg" width="1200" height="800" viewBox="0 0 1200 800" role="img" aria-label="Storm Debris Cleanup — BEFORE">
  <defs>
    <linearGradient id="sky" x1="0" y1="0" x2="0" y2="1">
      <stop offset="0" stop-color="#c7cdd1"/>
      <stop offset="1" stop-color="#eef6f8"/>
    </linearGradient>
    <linearGradient id="ground" x1="0" y1="0" x2="0" y2="1">
      <stop offset="0" stop-color="#b3ba78"/>
      <stop offset="1" stop-color="#9aa86b"/>
    </linearGradient>
  </defs>
  <rect width="1200" height="800" fill="url(#sky)"/>
  <circle cx="1020" cy="170" r="64" fill="#fff3c4" opacity="0.4"/>
  <path d="M0 500 Q300 440 600 500 T1200 500 L1200 800 L0 800 Z" fill="url(#ground)"/>
  <g transform="translate(300 720) scale(0.9)">
      <rect x="-12" y="-150" width="24" height="160" rx="6" fill="#6b4a2f"/>
      <path d="M0 -120 L-60 -190 M0 -110 L55 -175 M0 -90 L-40 -140 M0 -100 L35 -150" stroke="#6b4a2f" stroke-width="9" stroke-linecap="round" fill="none"/>
    </g><g transform="translate(560 690)" stroke="#6b4a2f" stroke-width="10" stroke-linecap="round">
    <path d="M-90 0 L30 -40"/><path d="M-40 10 L80 -10"/><path d="M-70 30 L60 30"/>
    <path d="M-10 -20 L40 40"/><path d="M-100 25 L-20 -30"/>
  </g><g transform="translate(860 720)" stroke="#6b4a2f" stroke-width="10" stroke-linecap="round">
    <path d="M-90 0 L30 -40"/><path d="M-40 10 L80 -10"/><path d="M-70 30 L60 30"/>
    <path d="M-10 -20 L40 40"/><path d="M-100 25 L-20 -30"/>
  </g>
  <g>
    <rect x="40" y="40" width="1120" height="86" rx="16" fill="#234221" opacity="0.92"/>
    <text x="64" y="84" font-family="Georgia, serif" font-size="34" fill="#ffffff" font-weight="700">Storm Debris Cleanup</text>
    <text x="64" y="112" font-family="Arial, sans-serif" font-size="18" fill="#cfe6c9" letter-spacing="2">BRIAN'S LANDSCAPING · BETHLEHEM, PA</text>
    <rect x="1000" y="58" width="136" height="50" rx="25" fill="#ffffff"/>
    <text x="1068" y="91" text-anchor="middle" font-family="Arial, sans-serif" font-size="22" fill="#234221" font-weight="800" letter-spacing="2">BEFORE</text>
  </g>
  <text x="1160" y="772" text-anchor="end" font-family="Arial, sans-serif" font-size="16" fill="#ffffff" opacity="0.7">Placeholder — replace with real project photo</text>
</svg>